<svg xmlns="http://www.w3.org/2000/svg" version="1.1" x="0" y="0" width="389" height="595.3" viewBox="371.4 0 389 595.3" enable-background="new 371.445 0 389 595.279" xml:space="preserve"><path d="M548.8 283.1c-2.1-2.8-70.2-74.2-82.2-87.1 -12-13-22.9-39.7-22.9-64.1 0-55.8 45.2-101 101-101 -63.9 0-115.8 51.8-115.8 115.8 0 3.1 0.2 6.2 0.4 9.3 1.8 22.2 9.8 42.7 22.3 59.6 5 6.7 68.3 82.6 68.3 82.6 3.2 4.2 5.1 9.4 5.1 15 0 6.5-2.6 12.5-6.7 16.9l-55.7 54.5h44.5c18.8-18.3 41-40.2 43.1-43.3 5.5-8 8.7-17.7 8.7-28.2C558.8 301.9 555.1 291.5 548.8 283.1z"/><path d="M578.4 309.7c2.1 2.8 70.2 74.2 82.2 87.1 12 13 22.9 39.7 22.9 64.1 0 55.8-45.2 101-101 101 64 0 115.8-51.8 115.8-115.8 0-3.1-0.2-6.2-0.4-9.3 -1.8-22.2-9.8-42.7-22.3-59.6 -5-6.7-68.3-82.6-68.3-82.6 -3.2-4.2-5.1-9.4-5.1-15 0-6.5 2.6-12.5 6.7-16.9l55.7-54.5h-44.5c-18.8 18.3-41 40.2-43.1 43.3 -5.5 8-8.7 17.7-8.7 28.2C568.3 290.8 572.1 301.3 578.4 309.7z"/></svg>
